<svg width="96" height="96" viewBox="0 0 96 96" fill="none" xmlns="http://www.w3.org/2000/svg">
<g clip-path="url(#clip0_6_8)">
<path d="M52 12C32.12 12 16 28.12 16 48H4L19.56 63.56L19.84 64.12L36 48H24C24 32.52 36.52 20 52 20C67.48 20 80 32.52 80 48C80 63.48 67.48 76 52 76C44.28 76 37.28 72.84 32.24 67.76L26.56 73.44C33.08 79.96 42.04 84 52 84C71.88 84 88 67.88 88 48C88 28.12 71.88 12 52 12ZM48 32V52L65.12 62.16L68 57.32L54 49V32H48Z" fill="white"/>
</g>
<defs>
<clipPath id="clip0_6_8">
<rect width="96" height="96" fill="white"/>
</clipPath>
</defs>
</svg>
