<svg width="87" height="81" viewBox="0 0 87 81" fill="none" xmlns="http://www.w3.org/2000/svg">
<ellipse cx="43.5" cy="40.5" rx="43.5" ry="40.5" fill="#3B3355"/>
<path d="M65.2778 20H21.7222V25.125H65.2778V20ZM68 45.625V40.5L65.2778 27.6875H21.7222L19 40.5V45.625H21.7222V61H48.9444V45.625H59.8333V61H65.2778V45.625H68ZM43.5 55.875H27.1667V45.625H43.5V55.875Z" fill="white"/>
<path d="M65.2778 20H21.7222V25.125H65.2778V20ZM68 45.625V40.5L65.2778 27.6875H21.7222L19 40.5V45.625H21.7222V61H48.9444V45.625H59.8333V61H65.2778V45.625H68ZM43.5 55.875H27.1667V45.625H43.5V55.875Z" fill="white"/>
</svg>
